<mxfile>
    <diagram id="XrA6FTOaod522s6W25av" name="api-schema">
        <mxGraphModel dx="1146" dy="1593" grid="1" gridSize="10" guides="0" tooltips="1" connect="1" arrows="1" fold="1" page="1" pageScale="1" pageWidth="827" pageHeight="1169" math="0" shadow="0">
            <root>
                <mxCell id="0"/>
                <mxCell id="1" parent="0"/>
                <mxCell id="9O6_YEoIzitBgrF7ZaUO-6" value="" style="edgeStyle=orthogonalEdgeStyle;rounded=0;orthogonalLoop=1;jettySize=auto;html=1;" parent="1" source="9O6_YEoIzitBgrF7ZaUO-1" target="9O6_YEoIzitBgrF7ZaUO-5" edge="1">
                    <mxGeometry relative="1" as="geometry"/>
                </mxCell>
                <mxCell id="9O6_YEoIzitBgrF7ZaUO-7" value="/sign-up/user" style="edgeLabel;html=1;align=center;verticalAlign=middle;resizable=0;points=[];" parent="9O6_YEoIzitBgrF7ZaUO-6" vertex="1" connectable="0">
                    <mxGeometry x="-0.1667" relative="1" as="geometry">
                        <mxPoint as="offset"/>
                    </mxGeometry>
                </mxCell>
                <mxCell id="9O6_YEoIzitBgrF7ZaUO-68" style="edgeStyle=orthogonalEdgeStyle;rounded=0;orthogonalLoop=1;jettySize=auto;html=1;entryX=0.5;entryY=0;entryDx=0;entryDy=0;" parent="1" source="9O6_YEoIzitBgrF7ZaUO-1" target="9O6_YEoIzitBgrF7ZaUO-67" edge="1">
                    <mxGeometry relative="1" as="geometry">
                        <Array as="points">
                            <mxPoint x="400" y="240"/>
                            <mxPoint x="-40" y="240"/>
                        </Array>
                    </mxGeometry>
                </mxCell>
                <mxCell id="9O6_YEoIzitBgrF7ZaUO-69" value="/sign-in" style="edgeLabel;html=1;align=center;verticalAlign=middle;resizable=0;points=[];" parent="9O6_YEoIzitBgrF7ZaUO-68" vertex="1" connectable="0">
                    <mxGeometry x="0.7607" y="1" relative="1" as="geometry">
                        <mxPoint as="offset"/>
                    </mxGeometry>
                </mxCell>
                <mxCell id="9O6_YEoIzitBgrF7ZaUO-145" style="edgeStyle=orthogonalEdgeStyle;rounded=0;orthogonalLoop=1;jettySize=auto;html=1;entryX=0.5;entryY=0;entryDx=0;entryDy=0;" parent="1" source="9O6_YEoIzitBgrF7ZaUO-1" target="9O6_YEoIzitBgrF7ZaUO-144" edge="1">
                    <mxGeometry relative="1" as="geometry">
                        <Array as="points">
                            <mxPoint x="400" y="240"/>
                            <mxPoint x="840" y="240"/>
                        </Array>
                    </mxGeometry>
                </mxCell>
                <mxCell id="9O6_YEoIzitBgrF7ZaUO-146" value="/sign-out" style="edgeLabel;html=1;align=center;verticalAlign=middle;resizable=0;points=[];" parent="9O6_YEoIzitBgrF7ZaUO-145" vertex="1" connectable="0">
                    <mxGeometry x="0.7429" relative="1" as="geometry">
                        <mxPoint as="offset"/>
                    </mxGeometry>
                </mxCell>
                <mxCell id="9O6_YEoIzitBgrF7ZaUO-242" style="edgeStyle=orthogonalEdgeStyle;rounded=0;orthogonalLoop=1;jettySize=auto;html=1;entryX=0.5;entryY=0;entryDx=0;entryDy=0;" parent="1" source="9O6_YEoIzitBgrF7ZaUO-1" target="9O6_YEoIzitBgrF7ZaUO-198" edge="1">
                    <mxGeometry relative="1" as="geometry">
                        <Array as="points">
                            <mxPoint x="400" y="240"/>
                            <mxPoint x="1280" y="240"/>
                        </Array>
                    </mxGeometry>
                </mxCell>
                <mxCell id="9O6_YEoIzitBgrF7ZaUO-243" value="/change-password" style="edgeLabel;html=1;align=center;verticalAlign=middle;resizable=0;points=[];" parent="9O6_YEoIzitBgrF7ZaUO-242" vertex="1" connectable="0">
                    <mxGeometry x="0.8492" y="1" relative="1" as="geometry">
                        <mxPoint as="offset"/>
                    </mxGeometry>
                </mxCell>
                <mxCell id="9O6_YEoIzitBgrF7ZaUO-334" style="edgeStyle=orthogonalEdgeStyle;rounded=0;orthogonalLoop=1;jettySize=auto;html=1;entryX=0.5;entryY=0;entryDx=0;entryDy=0;" parent="1" source="9O6_YEoIzitBgrF7ZaUO-1" target="9O6_YEoIzitBgrF7ZaUO-300" edge="1">
                    <mxGeometry relative="1" as="geometry">
                        <Array as="points">
                            <mxPoint x="400" y="240"/>
                            <mxPoint x="-440" y="240"/>
                        </Array>
                    </mxGeometry>
                </mxCell>
                <mxCell id="9O6_YEoIzitBgrF7ZaUO-335" value="/delete-user" style="edgeLabel;html=1;align=center;verticalAlign=middle;resizable=0;points=[];" parent="9O6_YEoIzitBgrF7ZaUO-334" vertex="1" connectable="0">
                    <mxGeometry x="0.8541" relative="1" as="geometry">
                        <mxPoint as="offset"/>
                    </mxGeometry>
                </mxCell>
                <mxCell id="9O6_YEoIzitBgrF7ZaUO-1" value="Auth" style="rounded=0;whiteSpace=wrap;html=1;" parent="1" vertex="1">
                    <mxGeometry x="320" y="160" width="160" height="60" as="geometry"/>
                </mxCell>
                <mxCell id="9O6_YEoIzitBgrF7ZaUO-2" value="" style="endArrow=classic;html=1;" parent="1" edge="1">
                    <mxGeometry width="50" height="50" relative="1" as="geometry">
                        <mxPoint x="400" y="80" as="sourcePoint"/>
                        <mxPoint x="400" y="160" as="targetPoint"/>
                    </mxGeometry>
                </mxCell>
                <mxCell id="9O6_YEoIzitBgrF7ZaUO-3" value="/api/auth" style="edgeLabel;html=1;align=center;verticalAlign=middle;resizable=0;points=[];" parent="9O6_YEoIzitBgrF7ZaUO-2" vertex="1" connectable="0">
                    <mxGeometry x="-0.05" y="-1" relative="1" as="geometry">
                        <mxPoint as="offset"/>
                    </mxGeometry>
                </mxCell>
                <mxCell id="9O6_YEoIzitBgrF7ZaUO-58" style="edgeStyle=orthogonalEdgeStyle;rounded=0;orthogonalLoop=1;jettySize=auto;html=1;entryX=0;entryY=0.5;entryDx=0;entryDy=0;" parent="1" source="9O6_YEoIzitBgrF7ZaUO-5" target="9O6_YEoIzitBgrF7ZaUO-13" edge="1">
                    <mxGeometry relative="1" as="geometry"/>
                </mxCell>
                <mxCell id="9O6_YEoIzitBgrF7ZaUO-59" style="edgeStyle=orthogonalEdgeStyle;rounded=0;orthogonalLoop=1;jettySize=auto;html=1;entryX=0;entryY=0.5;entryDx=0;entryDy=0;" parent="1" source="9O6_YEoIzitBgrF7ZaUO-5" target="9O6_YEoIzitBgrF7ZaUO-31" edge="1">
                    <mxGeometry relative="1" as="geometry"/>
                </mxCell>
                <mxCell id="9O6_YEoIzitBgrF7ZaUO-114" style="edgeStyle=orthogonalEdgeStyle;rounded=0;orthogonalLoop=1;jettySize=auto;html=1;entryX=0;entryY=0.5;entryDx=0;entryDy=0;" parent="1" source="9O6_YEoIzitBgrF7ZaUO-5" target="9O6_YEoIzitBgrF7ZaUO-107" edge="1">
                    <mxGeometry relative="1" as="geometry"/>
                </mxCell>
                <mxCell id="9O6_YEoIzitBgrF7ZaUO-5" value="Sign Up User" style="rounded=0;whiteSpace=wrap;html=1;fillColor=#cce5ff;strokeColor=#36393d;" parent="1" vertex="1">
                    <mxGeometry x="320" y="340" width="160" height="60" as="geometry"/>
                </mxCell>
                <mxCell id="9O6_YEoIzitBgrF7ZaUO-13" value="Headers" style="shape=table;startSize=30;container=1;collapsible=1;childLayout=tableLayout;fixedRows=1;rowLines=0;fontStyle=1;align=center;resizeLast=1;" parent="1" vertex="1" collapsed="1">
                    <mxGeometry x="560" y="295" width="80" height="30" as="geometry">
                        <mxRectangle x="560" y="295" width="300" height="130" as="alternateBounds"/>
                    </mxGeometry>
                </mxCell>
                <mxCell id="9O6_YEoIzitBgrF7ZaUO-14" value="" style="shape=partialRectangle;collapsible=0;dropTarget=0;pointerEvents=0;fillColor=none;top=0;left=0;bottom=1;right=0;points=[[0,0.5],[1,0.5]];portConstraint=eastwest;" parent="9O6_YEoIzitBgrF7ZaUO-13" vertex="1">
                    <mxGeometry y="30" width="300" height="30" as="geometry"/>
                </mxCell>
                <mxCell id="9O6_YEoIzitBgrF7ZaUO-16" value="Key" style="shape=partialRectangle;connectable=0;fillColor=none;top=0;left=0;bottom=0;right=0;align=left;spacingLeft=6;fontStyle=5;overflow=hidden;" parent="9O6_YEoIzitBgrF7ZaUO-14" vertex="1">
                    <mxGeometry width="150" height="30" as="geometry"/>
                </mxCell>
                <mxCell id="9O6_YEoIzitBgrF7ZaUO-26" value="Value Type" style="shape=partialRectangle;connectable=0;fillColor=none;top=0;left=0;bottom=0;right=0;align=left;spacingLeft=6;fontStyle=5;overflow=hidden;" parent="9O6_YEoIzitBgrF7ZaUO-14" vertex="1">
                    <mxGeometry x="150" width="150" height="30" as="geometry"/>
                </mxCell>
                <mxCell id="9O6_YEoIzitBgrF7ZaUO-17" value="" style="shape=partialRectangle;collapsible=0;dropTarget=0;pointerEvents=0;fillColor=none;top=0;left=0;bottom=0;right=0;points=[[0,0.5],[1,0.5]];portConstraint=eastwest;" parent="9O6_YEoIzitBgrF7ZaUO-13" vertex="1">
                    <mxGeometry y="60" width="300" height="30" as="geometry"/>
                </mxCell>
                <mxCell id="9O6_YEoIzitBgrF7ZaUO-19" value="Authorization" style="shape=partialRectangle;connectable=0;fillColor=none;top=0;left=0;bottom=0;right=0;align=left;spacingLeft=6;overflow=hidden;" parent="9O6_YEoIzitBgrF7ZaUO-17" vertex="1">
                    <mxGeometry width="150" height="30" as="geometry"/>
                </mxCell>
                <mxCell id="9O6_YEoIzitBgrF7ZaUO-27" value="Bearer Token" style="shape=partialRectangle;connectable=0;fillColor=none;top=0;left=0;bottom=0;right=0;align=left;spacingLeft=6;overflow=hidden;" parent="9O6_YEoIzitBgrF7ZaUO-17" vertex="1">
                    <mxGeometry x="150" width="150" height="30" as="geometry"/>
                </mxCell>
                <mxCell id="9O6_YEoIzitBgrF7ZaUO-141" style="shape=partialRectangle;collapsible=0;dropTarget=0;pointerEvents=0;fillColor=none;top=0;left=0;bottom=0;right=0;points=[[0,0.5],[1,0.5]];portConstraint=eastwest;" parent="9O6_YEoIzitBgrF7ZaUO-13" vertex="1">
                    <mxGeometry y="90" width="300" height="30" as="geometry"/>
                </mxCell>
                <mxCell id="9O6_YEoIzitBgrF7ZaUO-142" value="Content-Type" style="shape=partialRectangle;connectable=0;fillColor=none;top=0;left=0;bottom=0;right=0;align=left;spacingLeft=6;overflow=hidden;" parent="9O6_YEoIzitBgrF7ZaUO-141" vertex="1">
                    <mxGeometry width="150" height="30" as="geometry"/>
                </mxCell>
                <mxCell id="9O6_YEoIzitBgrF7ZaUO-143" value="application/json" style="shape=partialRectangle;connectable=0;fillColor=none;top=0;left=0;bottom=0;right=0;align=left;spacingLeft=6;overflow=hidden;" parent="9O6_YEoIzitBgrF7ZaUO-141" vertex="1">
                    <mxGeometry x="150" width="150" height="30" as="geometry"/>
                </mxCell>
                <mxCell id="9O6_YEoIzitBgrF7ZaUO-31" value="Body" style="shape=table;startSize=30;container=1;collapsible=1;childLayout=tableLayout;fixedRows=1;rowLines=0;fontStyle=1;align=center;resizeLast=1;" parent="1" vertex="1" collapsed="1">
                    <mxGeometry x="560" y="410" width="80" height="30" as="geometry">
                        <mxRectangle x="560" y="410" width="300" height="250" as="alternateBounds"/>
                    </mxGeometry>
                </mxCell>
                <mxCell id="9O6_YEoIzitBgrF7ZaUO-32" value="" style="shape=partialRectangle;collapsible=0;dropTarget=0;pointerEvents=0;fillColor=none;top=0;left=0;bottom=1;right=0;points=[[0,0.5],[1,0.5]];portConstraint=eastwest;" parent="9O6_YEoIzitBgrF7ZaUO-31" vertex="1">
                    <mxGeometry y="30" width="300" height="30" as="geometry"/>
                </mxCell>
                <mxCell id="9O6_YEoIzitBgrF7ZaUO-33" value="Key" style="shape=partialRectangle;connectable=0;fillColor=none;top=0;left=0;bottom=0;right=0;align=left;spacingLeft=6;fontStyle=5;overflow=hidden;" parent="9O6_YEoIzitBgrF7ZaUO-32" vertex="1">
                    <mxGeometry width="150" height="30" as="geometry"/>
                </mxCell>
                <mxCell id="9O6_YEoIzitBgrF7ZaUO-34" value="Value Type" style="shape=partialRectangle;connectable=0;fillColor=none;top=0;left=0;bottom=0;right=0;align=left;spacingLeft=6;fontStyle=5;overflow=hidden;" parent="9O6_YEoIzitBgrF7ZaUO-32" vertex="1">
                    <mxGeometry x="150" width="150" height="30" as="geometry"/>
                </mxCell>
                <mxCell id="9O6_YEoIzitBgrF7ZaUO-35" value="" style="shape=partialRectangle;collapsible=0;dropTarget=0;pointerEvents=0;fillColor=none;top=0;left=0;bottom=0;right=0;points=[[0,0.5],[1,0.5]];portConstraint=eastwest;" parent="9O6_YEoIzitBgrF7ZaUO-31" vertex="1">
                    <mxGeometry y="60" width="300" height="30" as="geometry"/>
                </mxCell>
                <mxCell id="9O6_YEoIzitBgrF7ZaUO-36" value="First Name" style="shape=partialRectangle;connectable=0;fillColor=none;top=0;left=0;bottom=0;right=0;align=left;spacingLeft=6;overflow=hidden;" parent="9O6_YEoIzitBgrF7ZaUO-35" vertex="1">
                    <mxGeometry width="150" height="30" as="geometry"/>
                </mxCell>
                <mxCell id="9O6_YEoIzitBgrF7ZaUO-37" value="String" style="shape=partialRectangle;connectable=0;fillColor=none;top=0;left=0;bottom=0;right=0;align=left;spacingLeft=6;overflow=hidden;" parent="9O6_YEoIzitBgrF7ZaUO-35" vertex="1">
                    <mxGeometry x="150" width="150" height="30" as="geometry"/>
                </mxCell>
                <mxCell id="9O6_YEoIzitBgrF7ZaUO-54" style="shape=partialRectangle;collapsible=0;dropTarget=0;pointerEvents=0;fillColor=none;top=0;left=0;bottom=0;right=0;points=[[0,0.5],[1,0.5]];portConstraint=eastwest;" parent="9O6_YEoIzitBgrF7ZaUO-31" vertex="1">
                    <mxGeometry y="90" width="300" height="30" as="geometry"/>
                </mxCell>
                <mxCell id="9O6_YEoIzitBgrF7ZaUO-55" value="Last Name" style="shape=partialRectangle;connectable=0;fillColor=none;top=0;left=0;bottom=0;right=0;align=left;spacingLeft=6;overflow=hidden;" parent="9O6_YEoIzitBgrF7ZaUO-54" vertex="1">
                    <mxGeometry width="150" height="30" as="geometry"/>
                </mxCell>
                <mxCell id="9O6_YEoIzitBgrF7ZaUO-56" value="String" style="shape=partialRectangle;connectable=0;fillColor=none;top=0;left=0;bottom=0;right=0;align=left;spacingLeft=6;overflow=hidden;" parent="9O6_YEoIzitBgrF7ZaUO-54" vertex="1">
                    <mxGeometry x="150" width="150" height="30" as="geometry"/>
                </mxCell>
                <mxCell id="9O6_YEoIzitBgrF7ZaUO-51" style="shape=partialRectangle;collapsible=0;dropTarget=0;pointerEvents=0;fillColor=none;top=0;left=0;bottom=0;right=0;points=[[0,0.5],[1,0.5]];portConstraint=eastwest;" parent="9O6_YEoIzitBgrF7ZaUO-31" vertex="1">
                    <mxGeometry y="120" width="300" height="30" as="geometry"/>
                </mxCell>
                <mxCell id="9O6_YEoIzitBgrF7ZaUO-52" value="Ph. Number" style="shape=partialRectangle;connectable=0;fillColor=none;top=0;left=0;bottom=0;right=0;align=left;spacingLeft=6;overflow=hidden;" parent="9O6_YEoIzitBgrF7ZaUO-51" vertex="1">
                    <mxGeometry width="150" height="30" as="geometry"/>
                </mxCell>
                <mxCell id="9O6_YEoIzitBgrF7ZaUO-53" value="String" style="shape=partialRectangle;connectable=0;fillColor=none;top=0;left=0;bottom=0;right=0;align=left;spacingLeft=6;overflow=hidden;" parent="9O6_YEoIzitBgrF7ZaUO-51" vertex="1">
                    <mxGeometry x="150" width="150" height="30" as="geometry"/>
                </mxCell>
                <mxCell id="9O6_YEoIzitBgrF7ZaUO-48" style="shape=partialRectangle;collapsible=0;dropTarget=0;pointerEvents=0;fillColor=none;top=0;left=0;bottom=0;right=0;points=[[0,0.5],[1,0.5]];portConstraint=eastwest;" parent="9O6_YEoIzitBgrF7ZaUO-31" vertex="1">
                    <mxGeometry y="150" width="300" height="30" as="geometry"/>
                </mxCell>
                <mxCell id="9O6_YEoIzitBgrF7ZaUO-49" value="Date of Birth" style="shape=partialRectangle;connectable=0;fillColor=none;top=0;left=0;bottom=0;right=0;align=left;spacingLeft=6;overflow=hidden;" parent="9O6_YEoIzitBgrF7ZaUO-48" vertex="1">
                    <mxGeometry width="150" height="30" as="geometry"/>
                </mxCell>
                <mxCell id="9O6_YEoIzitBgrF7ZaUO-50" value="Date" style="shape=partialRectangle;connectable=0;fillColor=none;top=0;left=0;bottom=0;right=0;align=left;spacingLeft=6;overflow=hidden;" parent="9O6_YEoIzitBgrF7ZaUO-48" vertex="1">
                    <mxGeometry x="150" width="150" height="30" as="geometry"/>
                </mxCell>
                <mxCell id="9O6_YEoIzitBgrF7ZaUO-45" style="shape=partialRectangle;collapsible=0;dropTarget=0;pointerEvents=0;fillColor=none;top=0;left=0;bottom=0;right=0;points=[[0,0.5],[1,0.5]];portConstraint=eastwest;" parent="9O6_YEoIzitBgrF7ZaUO-31" vertex="1">
                    <mxGeometry y="180" width="300" height="30" as="geometry"/>
                </mxCell>
                <mxCell id="9O6_YEoIzitBgrF7ZaUO-46" value="Username" style="shape=partialRectangle;connectable=0;fillColor=none;top=0;left=0;bottom=0;right=0;align=left;spacingLeft=6;overflow=hidden;" parent="9O6_YEoIzitBgrF7ZaUO-45" vertex="1">
                    <mxGeometry width="150" height="30" as="geometry"/>
                </mxCell>
                <mxCell id="9O6_YEoIzitBgrF7ZaUO-47" value="String" style="shape=partialRectangle;connectable=0;fillColor=none;top=0;left=0;bottom=0;right=0;align=left;spacingLeft=6;overflow=hidden;" parent="9O6_YEoIzitBgrF7ZaUO-45" vertex="1">
                    <mxGeometry x="150" width="150" height="30" as="geometry"/>
                </mxCell>
                <mxCell id="9O6_YEoIzitBgrF7ZaUO-39" style="shape=partialRectangle;collapsible=0;dropTarget=0;pointerEvents=0;fillColor=none;top=0;left=0;bottom=0;right=0;points=[[0,0.5],[1,0.5]];portConstraint=eastwest;" parent="9O6_YEoIzitBgrF7ZaUO-31" vertex="1">
                    <mxGeometry y="210" width="300" height="30" as="geometry"/>
                </mxCell>
                <mxCell id="9O6_YEoIzitBgrF7ZaUO-40" value="User Type" style="shape=partialRectangle;connectable=0;fillColor=none;top=0;left=0;bottom=0;right=0;align=left;spacingLeft=6;overflow=hidden;" parent="9O6_YEoIzitBgrF7ZaUO-39" vertex="1">
                    <mxGeometry width="150" height="30" as="geometry"/>
                </mxCell>
                <mxCell id="9O6_YEoIzitBgrF7ZaUO-41" value="String" style="shape=partialRectangle;connectable=0;fillColor=none;top=0;left=0;bottom=0;right=0;align=left;spacingLeft=6;overflow=hidden;" parent="9O6_YEoIzitBgrF7ZaUO-39" vertex="1">
                    <mxGeometry x="150" width="150" height="30" as="geometry"/>
                </mxCell>
                <mxCell id="9O6_YEoIzitBgrF7ZaUO-77" style="edgeStyle=orthogonalEdgeStyle;rounded=0;orthogonalLoop=1;jettySize=auto;html=1;entryX=0;entryY=0.5;entryDx=0;entryDy=0;" parent="1" source="9O6_YEoIzitBgrF7ZaUO-67" target="9O6_YEoIzitBgrF7ZaUO-70" edge="1">
                    <mxGeometry relative="1" as="geometry"/>
                </mxCell>
                <mxCell id="9O6_YEoIzitBgrF7ZaUO-103" style="edgeStyle=orthogonalEdgeStyle;rounded=0;orthogonalLoop=1;jettySize=auto;html=1;entryX=0;entryY=0.5;entryDx=0;entryDy=0;" parent="1" source="9O6_YEoIzitBgrF7ZaUO-67" target="9O6_YEoIzitBgrF7ZaUO-78" edge="1">
                    <mxGeometry relative="1" as="geometry"/>
                </mxCell>
                <mxCell id="9O6_YEoIzitBgrF7ZaUO-140" style="edgeStyle=orthogonalEdgeStyle;rounded=0;orthogonalLoop=1;jettySize=auto;html=1;entryX=0;entryY=0.5;entryDx=0;entryDy=0;" parent="1" source="9O6_YEoIzitBgrF7ZaUO-67" target="9O6_YEoIzitBgrF7ZaUO-124" edge="1">
                    <mxGeometry relative="1" as="geometry"/>
                </mxCell>
                <mxCell id="9O6_YEoIzitBgrF7ZaUO-67" value="Sign In User" style="rounded=0;whiteSpace=wrap;html=1;fillColor=#cce5ff;strokeColor=#36393d;" parent="1" vertex="1">
                    <mxGeometry x="-120" y="340" width="160" height="60" as="geometry"/>
                </mxCell>
                <mxCell id="9O6_YEoIzitBgrF7ZaUO-70" value="Headers" style="shape=table;startSize=30;container=1;collapsible=1;childLayout=tableLayout;fixedRows=1;rowLines=0;fontStyle=1;align=center;resizeLast=1;" parent="1" vertex="1" collapsed="1">
                    <mxGeometry x="120" y="295" width="80" height="30" as="geometry">
                        <mxRectangle x="80" y="310" width="300" height="100" as="alternateBounds"/>
                    </mxGeometry>
                </mxCell>
                <mxCell id="9O6_YEoIzitBgrF7ZaUO-71" value="" style="shape=partialRectangle;collapsible=0;dropTarget=0;pointerEvents=0;fillColor=none;top=0;left=0;bottom=1;right=0;points=[[0,0.5],[1,0.5]];portConstraint=eastwest;" parent="9O6_YEoIzitBgrF7ZaUO-70" vertex="1">
                    <mxGeometry y="30" width="300" height="30" as="geometry"/>
                </mxCell>
                <mxCell id="9O6_YEoIzitBgrF7ZaUO-72" value="Key" style="shape=partialRectangle;connectable=0;fillColor=none;top=0;left=0;bottom=0;right=0;align=left;spacingLeft=6;fontStyle=5;overflow=hidden;" parent="9O6_YEoIzitBgrF7ZaUO-71" vertex="1">
                    <mxGeometry width="150" height="30" as="geometry"/>
                </mxCell>
                <mxCell id="9O6_YEoIzitBgrF7ZaUO-73" value="Value Type" style="shape=partialRectangle;connectable=0;fillColor=none;top=0;left=0;bottom=0;right=0;align=left;spacingLeft=6;fontStyle=5;overflow=hidden;" parent="9O6_YEoIzitBgrF7ZaUO-71" vertex="1">
                    <mxGeometry x="150" width="150" height="30" as="geometry"/>
                </mxCell>
                <mxCell id="9O6_YEoIzitBgrF7ZaUO-74" value="" style="shape=partialRectangle;collapsible=0;dropTarget=0;pointerEvents=0;fillColor=none;top=0;left=0;bottom=0;right=0;points=[[0,0.5],[1,0.5]];portConstraint=eastwest;" parent="9O6_YEoIzitBgrF7ZaUO-70" vertex="1">
                    <mxGeometry y="60" width="300" height="30" as="geometry"/>
                </mxCell>
                <mxCell id="9O6_YEoIzitBgrF7ZaUO-75" value="Content-type" style="shape=partialRectangle;connectable=0;fillColor=none;top=0;left=0;bottom=0;right=0;align=left;spacingLeft=6;overflow=hidden;" parent="9O6_YEoIzitBgrF7ZaUO-74" vertex="1">
                    <mxGeometry width="150" height="30" as="geometry"/>
                </mxCell>
                <mxCell id="9O6_YEoIzitBgrF7ZaUO-76" value="application/json" style="shape=partialRectangle;connectable=0;fillColor=none;top=0;left=0;bottom=0;right=0;align=left;spacingLeft=6;overflow=hidden;" parent="9O6_YEoIzitBgrF7ZaUO-74" vertex="1">
                    <mxGeometry x="150" width="150" height="30" as="geometry"/>
                </mxCell>
                <mxCell id="9O6_YEoIzitBgrF7ZaUO-78" value="Body" style="shape=table;startSize=30;container=1;collapsible=1;childLayout=tableLayout;fixedRows=1;rowLines=0;fontStyle=1;align=center;resizeLast=1;" parent="1" vertex="1" collapsed="1">
                    <mxGeometry x="120" y="410" width="80" height="30" as="geometry">
                        <mxRectangle x="120" y="410" width="300" height="130" as="alternateBounds"/>
                    </mxGeometry>
                </mxCell>
                <mxCell id="9O6_YEoIzitBgrF7ZaUO-79" value="" style="shape=partialRectangle;collapsible=0;dropTarget=0;pointerEvents=0;fillColor=none;top=0;left=0;bottom=1;right=0;points=[[0,0.5],[1,0.5]];portConstraint=eastwest;" parent="9O6_YEoIzitBgrF7ZaUO-78" vertex="1">
                    <mxGeometry y="30" width="300" height="30" as="geometry"/>
                </mxCell>
                <mxCell id="9O6_YEoIzitBgrF7ZaUO-80" value="Key" style="shape=partialRectangle;connectable=0;fillColor=none;top=0;left=0;bottom=0;right=0;align=left;spacingLeft=6;fontStyle=5;overflow=hidden;" parent="9O6_YEoIzitBgrF7ZaUO-79" vertex="1">
                    <mxGeometry width="150" height="30" as="geometry"/>
                </mxCell>
                <mxCell id="9O6_YEoIzitBgrF7ZaUO-81" value="Value Type" style="shape=partialRectangle;connectable=0;fillColor=none;top=0;left=0;bottom=0;right=0;align=left;spacingLeft=6;fontStyle=5;overflow=hidden;" parent="9O6_YEoIzitBgrF7ZaUO-79" vertex="1">
                    <mxGeometry x="150" width="150" height="30" as="geometry"/>
                </mxCell>
                <mxCell id="9O6_YEoIzitBgrF7ZaUO-94" style="shape=partialRectangle;collapsible=0;dropTarget=0;pointerEvents=0;fillColor=none;top=0;left=0;bottom=0;right=0;points=[[0,0.5],[1,0.5]];portConstraint=eastwest;" parent="9O6_YEoIzitBgrF7ZaUO-78" vertex="1">
                    <mxGeometry y="60" width="300" height="30" as="geometry"/>
                </mxCell>
                <mxCell id="9O6_YEoIzitBgrF7ZaUO-95" value="Username" style="shape=partialRectangle;connectable=0;fillColor=none;top=0;left=0;bottom=0;right=0;align=left;spacingLeft=6;overflow=hidden;" parent="9O6_YEoIzitBgrF7ZaUO-94" vertex="1">
                    <mxGeometry width="150" height="30" as="geometry"/>
                </mxCell>
                <mxCell id="9O6_YEoIzitBgrF7ZaUO-96" value="String" style="shape=partialRectangle;connectable=0;fillColor=none;top=0;left=0;bottom=0;right=0;align=left;spacingLeft=6;overflow=hidden;" parent="9O6_YEoIzitBgrF7ZaUO-94" vertex="1">
                    <mxGeometry x="150" width="150" height="30" as="geometry"/>
                </mxCell>
                <mxCell id="9O6_YEoIzitBgrF7ZaUO-100" style="shape=partialRectangle;collapsible=0;dropTarget=0;pointerEvents=0;fillColor=none;top=0;left=0;bottom=0;right=0;points=[[0,0.5],[1,0.5]];portConstraint=eastwest;" parent="9O6_YEoIzitBgrF7ZaUO-78" vertex="1">
                    <mxGeometry y="90" width="300" height="30" as="geometry"/>
                </mxCell>
                <mxCell id="9O6_YEoIzitBgrF7ZaUO-101" value="Password" style="shape=partialRectangle;connectable=0;fillColor=none;top=0;left=0;bottom=0;right=0;align=left;spacingLeft=6;overflow=hidden;" parent="9O6_YEoIzitBgrF7ZaUO-100" vertex="1">
                    <mxGeometry width="150" height="30" as="geometry"/>
                </mxCell>
                <mxCell id="9O6_YEoIzitBgrF7ZaUO-102" value="String" style="shape=partialRectangle;connectable=0;fillColor=none;top=0;left=0;bottom=0;right=0;align=left;spacingLeft=6;overflow=hidden;" parent="9O6_YEoIzitBgrF7ZaUO-100" vertex="1">
                    <mxGeometry x="150" width="150" height="30" as="geometry"/>
                </mxCell>
                <mxCell id="9O6_YEoIzitBgrF7ZaUO-107" value="Response" style="shape=table;startSize=30;container=1;collapsible=1;childLayout=tableLayout;fixedRows=1;rowLines=0;fontStyle=1;align=center;resizeLast=1;" parent="1" vertex="1" collapsed="1">
                    <mxGeometry x="560" y="520" width="80" height="30" as="geometry">
                        <mxRectangle x="560" y="520" width="300" height="160" as="alternateBounds"/>
                    </mxGeometry>
                </mxCell>
                <mxCell id="9O6_YEoIzitBgrF7ZaUO-108" value="" style="shape=partialRectangle;collapsible=0;dropTarget=0;pointerEvents=0;fillColor=none;top=0;left=0;bottom=1;right=0;points=[[0,0.5],[1,0.5]];portConstraint=eastwest;" parent="9O6_YEoIzitBgrF7ZaUO-107" vertex="1">
                    <mxGeometry y="30" width="300" height="30" as="geometry"/>
                </mxCell>
                <mxCell id="9O6_YEoIzitBgrF7ZaUO-109" value="Key" style="shape=partialRectangle;connectable=0;fillColor=none;top=0;left=0;bottom=0;right=0;align=left;spacingLeft=6;fontStyle=5;overflow=hidden;" parent="9O6_YEoIzitBgrF7ZaUO-108" vertex="1">
                    <mxGeometry width="150" height="30" as="geometry"/>
                </mxCell>
                <mxCell id="9O6_YEoIzitBgrF7ZaUO-110" value="Value Type" style="shape=partialRectangle;connectable=0;fillColor=none;top=0;left=0;bottom=0;right=0;align=left;spacingLeft=6;fontStyle=5;overflow=hidden;" parent="9O6_YEoIzitBgrF7ZaUO-108" vertex="1">
                    <mxGeometry x="150" width="150" height="30" as="geometry"/>
                </mxCell>
                <mxCell id="9O6_YEoIzitBgrF7ZaUO-111" value="" style="shape=partialRectangle;collapsible=0;dropTarget=0;pointerEvents=0;fillColor=none;top=0;left=0;bottom=0;right=0;points=[[0,0.5],[1,0.5]];portConstraint=eastwest;" parent="9O6_YEoIzitBgrF7ZaUO-107" vertex="1">
                    <mxGeometry y="60" width="300" height="30" as="geometry"/>
                </mxCell>
                <mxCell id="9O6_YEoIzitBgrF7ZaUO-112" value="Status Code" style="shape=partialRectangle;connectable=0;fillColor=none;top=0;left=0;bottom=0;right=0;align=left;spacingLeft=6;overflow=hidden;" parent="9O6_YEoIzitBgrF7ZaUO-111" vertex="1">
                    <mxGeometry width="150" height="30" as="geometry"/>
                </mxCell>
                <mxCell id="9O6_YEoIzitBgrF7ZaUO-113" value="Number" style="shape=partialRectangle;connectable=0;fillColor=none;top=0;left=0;bottom=0;right=0;align=left;spacingLeft=6;overflow=hidden;" parent="9O6_YEoIzitBgrF7ZaUO-111" vertex="1">
                    <mxGeometry x="150" width="150" height="30" as="geometry"/>
                </mxCell>
                <mxCell id="9O6_YEoIzitBgrF7ZaUO-115" style="shape=partialRectangle;collapsible=0;dropTarget=0;pointerEvents=0;fillColor=none;top=0;left=0;bottom=0;right=0;points=[[0,0.5],[1,0.5]];portConstraint=eastwest;" parent="9O6_YEoIzitBgrF7ZaUO-107" vertex="1">
                    <mxGeometry y="90" width="300" height="30" as="geometry"/>
                </mxCell>
                <mxCell id="9O6_YEoIzitBgrF7ZaUO-116" value="Message" style="shape=partialRectangle;connectable=0;fillColor=none;top=0;left=0;bottom=0;right=0;align=left;spacingLeft=6;overflow=hidden;" parent="9O6_YEoIzitBgrF7ZaUO-115" vertex="1">
                    <mxGeometry width="150" height="30" as="geometry"/>
                </mxCell>
                <mxCell id="9O6_YEoIzitBgrF7ZaUO-117" value="String" style="shape=partialRectangle;connectable=0;fillColor=none;top=0;left=0;bottom=0;right=0;align=left;spacingLeft=6;overflow=hidden;" parent="9O6_YEoIzitBgrF7ZaUO-115" vertex="1">
                    <mxGeometry x="150" width="150" height="30" as="geometry"/>
                </mxCell>
                <mxCell id="9O6_YEoIzitBgrF7ZaUO-118" style="shape=partialRectangle;collapsible=0;dropTarget=0;pointerEvents=0;fillColor=none;top=0;left=0;bottom=0;right=0;points=[[0,0.5],[1,0.5]];portConstraint=eastwest;" parent="9O6_YEoIzitBgrF7ZaUO-107" vertex="1">
                    <mxGeometry y="120" width="300" height="30" as="geometry"/>
                </mxCell>
                <mxCell id="9O6_YEoIzitBgrF7ZaUO-119" value="Data" style="shape=partialRectangle;connectable=0;fillColor=none;top=0;left=0;bottom=0;right=0;align=left;spacingLeft=6;overflow=hidden;" parent="9O6_YEoIzitBgrF7ZaUO-118" vertex="1">
                    <mxGeometry width="150" height="30" as="geometry"/>
                </mxCell>
                <mxCell id="9O6_YEoIzitBgrF7ZaUO-120" value="Object" style="shape=partialRectangle;connectable=0;fillColor=none;top=0;left=0;bottom=0;right=0;align=left;spacingLeft=6;overflow=hidden;" parent="9O6_YEoIzitBgrF7ZaUO-118" vertex="1">
                    <mxGeometry x="150" width="150" height="30" as="geometry"/>
                </mxCell>
                <mxCell id="9O6_YEoIzitBgrF7ZaUO-124" value="Response" style="shape=table;startSize=30;container=1;collapsible=1;childLayout=tableLayout;fixedRows=1;rowLines=0;fontStyle=1;align=center;resizeLast=1;" parent="1" vertex="1" collapsed="1">
                    <mxGeometry x="120" y="520" width="80" height="30" as="geometry">
                        <mxRectangle x="120" y="520" width="300" height="190" as="alternateBounds"/>
                    </mxGeometry>
                </mxCell>
                <mxCell id="9O6_YEoIzitBgrF7ZaUO-125" value="" style="shape=partialRectangle;collapsible=0;dropTarget=0;pointerEvents=0;fillColor=none;top=0;left=0;bottom=1;right=0;points=[[0,0.5],[1,0.5]];portConstraint=eastwest;" parent="9O6_YEoIzitBgrF7ZaUO-124" vertex="1">
                    <mxGeometry y="30" width="300" height="30" as="geometry"/>
                </mxCell>
                <mxCell id="9O6_YEoIzitBgrF7ZaUO-126" value="Key" style="shape=partialRectangle;connectable=0;fillColor=none;top=0;left=0;bottom=0;right=0;align=left;spacingLeft=6;fontStyle=5;overflow=hidden;" parent="9O6_YEoIzitBgrF7ZaUO-125" vertex="1">
                    <mxGeometry width="150" height="30" as="geometry"/>
                </mxCell>
                <mxCell id="9O6_YEoIzitBgrF7ZaUO-127" value="Value Type" style="shape=partialRectangle;connectable=0;fillColor=none;top=0;left=0;bottom=0;right=0;align=left;spacingLeft=6;fontStyle=5;overflow=hidden;" parent="9O6_YEoIzitBgrF7ZaUO-125" vertex="1">
                    <mxGeometry x="150" width="150" height="30" as="geometry"/>
                </mxCell>
                <mxCell id="9O6_YEoIzitBgrF7ZaUO-128" value="" style="shape=partialRectangle;collapsible=0;dropTarget=0;pointerEvents=0;fillColor=none;top=0;left=0;bottom=0;right=0;points=[[0,0.5],[1,0.5]];portConstraint=eastwest;" parent="9O6_YEoIzitBgrF7ZaUO-124" vertex="1">
                    <mxGeometry y="60" width="300" height="30" as="geometry"/>
                </mxCell>
                <mxCell id="9O6_YEoIzitBgrF7ZaUO-129" value="Status Code" style="shape=partialRectangle;connectable=0;fillColor=none;top=0;left=0;bottom=0;right=0;align=left;spacingLeft=6;overflow=hidden;" parent="9O6_YEoIzitBgrF7ZaUO-128" vertex="1">
                    <mxGeometry width="150" height="30" as="geometry"/>
                </mxCell>
                <mxCell id="9O6_YEoIzitBgrF7ZaUO-130" value="Number" style="shape=partialRectangle;connectable=0;fillColor=none;top=0;left=0;bottom=0;right=0;align=left;spacingLeft=6;overflow=hidden;" parent="9O6_YEoIzitBgrF7ZaUO-128" vertex="1">
                    <mxGeometry x="150" width="150" height="30" as="geometry"/>
                </mxCell>
                <mxCell id="9O6_YEoIzitBgrF7ZaUO-131" style="shape=partialRectangle;collapsible=0;dropTarget=0;pointerEvents=0;fillColor=none;top=0;left=0;bottom=0;right=0;points=[[0,0.5],[1,0.5]];portConstraint=eastwest;" parent="9O6_YEoIzitBgrF7ZaUO-124" vertex="1">
                    <mxGeometry y="90" width="300" height="30" as="geometry"/>
                </mxCell>
                <mxCell id="9O6_YEoIzitBgrF7ZaUO-132" value="Message" style="shape=partialRectangle;connectable=0;fillColor=none;top=0;left=0;bottom=0;right=0;align=left;spacingLeft=6;overflow=hidden;" parent="9O6_YEoIzitBgrF7ZaUO-131" vertex="1">
                    <mxGeometry width="150" height="30" as="geometry"/>
                </mxCell>
                <mxCell id="9O6_YEoIzitBgrF7ZaUO-133" value="String" style="shape=partialRectangle;connectable=0;fillColor=none;top=0;left=0;bottom=0;right=0;align=left;spacingLeft=6;overflow=hidden;" parent="9O6_YEoIzitBgrF7ZaUO-131" vertex="1">
                    <mxGeometry x="150" width="150" height="30" as="geometry"/>
                </mxCell>
                <mxCell id="9O6_YEoIzitBgrF7ZaUO-134" style="shape=partialRectangle;collapsible=0;dropTarget=0;pointerEvents=0;fillColor=none;top=0;left=0;bottom=0;right=0;points=[[0,0.5],[1,0.5]];portConstraint=eastwest;" parent="9O6_YEoIzitBgrF7ZaUO-124" vertex="1">
                    <mxGeometry y="120" width="300" height="30" as="geometry"/>
                </mxCell>
                <mxCell id="9O6_YEoIzitBgrF7ZaUO-135" value="Data" style="shape=partialRectangle;connectable=0;fillColor=none;top=0;left=0;bottom=0;right=0;align=left;spacingLeft=6;overflow=hidden;" parent="9O6_YEoIzitBgrF7ZaUO-134" vertex="1">
                    <mxGeometry width="150" height="30" as="geometry"/>
                </mxCell>
                <mxCell id="9O6_YEoIzitBgrF7ZaUO-136" value="Object" style="shape=partialRectangle;connectable=0;fillColor=none;top=0;left=0;bottom=0;right=0;align=left;spacingLeft=6;overflow=hidden;" parent="9O6_YEoIzitBgrF7ZaUO-134" vertex="1">
                    <mxGeometry x="150" width="150" height="30" as="geometry"/>
                </mxCell>
                <mxCell id="9O6_YEoIzitBgrF7ZaUO-137" style="shape=partialRectangle;collapsible=0;dropTarget=0;pointerEvents=0;fillColor=none;top=0;left=0;bottom=0;right=0;points=[[0,0.5],[1,0.5]];portConstraint=eastwest;" parent="9O6_YEoIzitBgrF7ZaUO-124" vertex="1">
                    <mxGeometry y="150" width="300" height="30" as="geometry"/>
                </mxCell>
                <mxCell id="9O6_YEoIzitBgrF7ZaUO-138" value="AUTH_TOKEN" style="shape=partialRectangle;connectable=0;fillColor=none;top=0;left=0;bottom=0;right=0;align=left;spacingLeft=6;overflow=hidden;" parent="9O6_YEoIzitBgrF7ZaUO-137" vertex="1">
                    <mxGeometry width="150" height="30" as="geometry"/>
                </mxCell>
                <mxCell id="9O6_YEoIzitBgrF7ZaUO-139" value="Cookie" style="shape=partialRectangle;connectable=0;fillColor=none;top=0;left=0;bottom=0;right=0;align=left;spacingLeft=6;overflow=hidden;" parent="9O6_YEoIzitBgrF7ZaUO-137" vertex="1">
                    <mxGeometry x="150" width="150" height="30" as="geometry"/>
                </mxCell>
                <mxCell id="9O6_YEoIzitBgrF7ZaUO-157" style="edgeStyle=orthogonalEdgeStyle;rounded=0;orthogonalLoop=1;jettySize=auto;html=1;entryX=0;entryY=0.5;entryDx=0;entryDy=0;" parent="1" source="9O6_YEoIzitBgrF7ZaUO-144" target="9O6_YEoIzitBgrF7ZaUO-147" edge="1">
                    <mxGeometry relative="1" as="geometry"/>
                </mxCell>
                <mxCell id="9O6_YEoIzitBgrF7ZaUO-183" style="edgeStyle=orthogonalEdgeStyle;rounded=0;orthogonalLoop=1;jettySize=auto;html=1;entryX=0;entryY=0.5;entryDx=0;entryDy=0;" parent="1" source="9O6_YEoIzitBgrF7ZaUO-144" target="9O6_YEoIzitBgrF7ZaUO-158" edge="1">
                    <mxGeometry relative="1" as="geometry"/>
                </mxCell>
                <mxCell id="9O6_YEoIzitBgrF7ZaUO-197" style="edgeStyle=orthogonalEdgeStyle;rounded=0;orthogonalLoop=1;jettySize=auto;html=1;entryX=0;entryY=0.5;entryDx=0;entryDy=0;" parent="1" source="9O6_YEoIzitBgrF7ZaUO-144" target="9O6_YEoIzitBgrF7ZaUO-184" edge="1">
                    <mxGeometry relative="1" as="geometry"/>
                </mxCell>
                <mxCell id="9O6_YEoIzitBgrF7ZaUO-144" value="Sign Out" style="rounded=0;whiteSpace=wrap;html=1;fillColor=#cce5ff;strokeColor=#36393d;" parent="1" vertex="1">
                    <mxGeometry x="760" y="340" width="160" height="60" as="geometry"/>
                </mxCell>
                <mxCell id="9O6_YEoIzitBgrF7ZaUO-147" value="Headers" style="shape=table;startSize=30;container=1;collapsible=1;childLayout=tableLayout;fixedRows=1;rowLines=0;fontStyle=1;align=center;resizeLast=1;" parent="1" vertex="1" collapsed="1">
                    <mxGeometry x="1000" y="300" width="80" height="30" as="geometry">
                        <mxRectangle x="1000" y="300" width="300" height="100" as="alternateBounds"/>
                    </mxGeometry>
                </mxCell>
                <mxCell id="9O6_YEoIzitBgrF7ZaUO-148" value="" style="shape=partialRectangle;collapsible=0;dropTarget=0;pointerEvents=0;fillColor=none;top=0;left=0;bottom=1;right=0;points=[[0,0.5],[1,0.5]];portConstraint=eastwest;" parent="9O6_YEoIzitBgrF7ZaUO-147" vertex="1">
                    <mxGeometry y="30" width="300" height="30" as="geometry"/>
                </mxCell>
                <mxCell id="9O6_YEoIzitBgrF7ZaUO-149" value="Key" style="shape=partialRectangle;connectable=0;fillColor=none;top=0;left=0;bottom=0;right=0;align=left;spacingLeft=6;fontStyle=5;overflow=hidden;" parent="9O6_YEoIzitBgrF7ZaUO-148" vertex="1">
                    <mxGeometry width="150" height="30" as="geometry"/>
                </mxCell>
                <mxCell id="9O6_YEoIzitBgrF7ZaUO-150" value="Value Type" style="shape=partialRectangle;connectable=0;fillColor=none;top=0;left=0;bottom=0;right=0;align=left;spacingLeft=6;fontStyle=5;overflow=hidden;" parent="9O6_YEoIzitBgrF7ZaUO-148" vertex="1">
                    <mxGeometry x="150" width="150" height="30" as="geometry"/>
                </mxCell>
                <mxCell id="9O6_YEoIzitBgrF7ZaUO-151" value="" style="shape=partialRectangle;collapsible=0;dropTarget=0;pointerEvents=0;fillColor=none;top=0;left=0;bottom=0;right=0;points=[[0,0.5],[1,0.5]];portConstraint=eastwest;" parent="9O6_YEoIzitBgrF7ZaUO-147" vertex="1">
                    <mxGeometry y="60" width="300" height="30" as="geometry"/>
                </mxCell>
                <mxCell id="9O6_YEoIzitBgrF7ZaUO-152" value="Authorization" style="shape=partialRectangle;connectable=0;fillColor=none;top=0;left=0;bottom=0;right=0;align=left;spacingLeft=6;overflow=hidden;" parent="9O6_YEoIzitBgrF7ZaUO-151" vertex="1">
                    <mxGeometry width="150" height="30" as="geometry"/>
                </mxCell>
                <mxCell id="9O6_YEoIzitBgrF7ZaUO-153" value="Bearer Token" style="shape=partialRectangle;connectable=0;fillColor=none;top=0;left=0;bottom=0;right=0;align=left;spacingLeft=6;overflow=hidden;" parent="9O6_YEoIzitBgrF7ZaUO-151" vertex="1">
                    <mxGeometry x="150" width="150" height="30" as="geometry"/>
                </mxCell>
                <mxCell id="9O6_YEoIzitBgrF7ZaUO-158" value="Body" style="shape=table;startSize=30;container=1;collapsible=1;childLayout=tableLayout;fixedRows=1;rowLines=0;fontStyle=1;align=center;resizeLast=1;" parent="1" vertex="1" collapsed="1">
                    <mxGeometry x="1000" y="410" width="80" height="30" as="geometry">
                        <mxRectangle x="1000" y="410" width="300" height="70" as="alternateBounds"/>
                    </mxGeometry>
                </mxCell>
                <mxCell id="9O6_YEoIzitBgrF7ZaUO-159" value="" style="shape=partialRectangle;collapsible=0;dropTarget=0;pointerEvents=0;fillColor=none;top=0;left=0;bottom=1;right=0;points=[[0,0.5],[1,0.5]];portConstraint=eastwest;" parent="9O6_YEoIzitBgrF7ZaUO-158" vertex="1">
                    <mxGeometry y="30" width="300" height="30" as="geometry"/>
                </mxCell>
                <mxCell id="9O6_YEoIzitBgrF7ZaUO-160" value="Key" style="shape=partialRectangle;connectable=0;fillColor=none;top=0;left=0;bottom=0;right=0;align=left;spacingLeft=6;fontStyle=5;overflow=hidden;" parent="9O6_YEoIzitBgrF7ZaUO-159" vertex="1">
                    <mxGeometry width="150" height="30" as="geometry"/>
                </mxCell>
                <mxCell id="9O6_YEoIzitBgrF7ZaUO-161" value="Value Type" style="shape=partialRectangle;connectable=0;fillColor=none;top=0;left=0;bottom=0;right=0;align=left;spacingLeft=6;fontStyle=5;overflow=hidden;" parent="9O6_YEoIzitBgrF7ZaUO-159" vertex="1">
                    <mxGeometry x="150" width="150" height="30" as="geometry"/>
                </mxCell>
                <mxCell id="9O6_YEoIzitBgrF7ZaUO-184" value="Response" style="shape=table;startSize=30;container=1;collapsible=1;childLayout=tableLayout;fixedRows=1;rowLines=0;fontStyle=1;align=center;resizeLast=1;" parent="1" vertex="1" collapsed="1">
                    <mxGeometry x="1000" y="520" width="80" height="30" as="geometry">
                        <mxRectangle x="1000" y="520" width="300" height="160" as="alternateBounds"/>
                    </mxGeometry>
                </mxCell>
                <mxCell id="9O6_YEoIzitBgrF7ZaUO-185" value="" style="shape=partialRectangle;collapsible=0;dropTarget=0;pointerEvents=0;fillColor=none;top=0;left=0;bottom=1;right=0;points=[[0,0.5],[1,0.5]];portConstraint=eastwest;" parent="9O6_YEoIzitBgrF7ZaUO-184" vertex="1">
                    <mxGeometry y="30" width="300" height="30" as="geometry"/>
                </mxCell>
                <mxCell id="9O6_YEoIzitBgrF7ZaUO-186" value="Key" style="shape=partialRectangle;connectable=0;fillColor=none;top=0;left=0;bottom=0;right=0;align=left;spacingLeft=6;fontStyle=5;overflow=hidden;" parent="9O6_YEoIzitBgrF7ZaUO-185" vertex="1">
                    <mxGeometry width="150" height="30" as="geometry"/>
                </mxCell>
                <mxCell id="9O6_YEoIzitBgrF7ZaUO-187" value="Value Type" style="shape=partialRectangle;connectable=0;fillColor=none;top=0;left=0;bottom=0;right=0;align=left;spacingLeft=6;fontStyle=5;overflow=hidden;" parent="9O6_YEoIzitBgrF7ZaUO-185" vertex="1">
                    <mxGeometry x="150" width="150" height="30" as="geometry"/>
                </mxCell>
                <mxCell id="9O6_YEoIzitBgrF7ZaUO-188" value="" style="shape=partialRectangle;collapsible=0;dropTarget=0;pointerEvents=0;fillColor=none;top=0;left=0;bottom=0;right=0;points=[[0,0.5],[1,0.5]];portConstraint=eastwest;" parent="9O6_YEoIzitBgrF7ZaUO-184" vertex="1">
                    <mxGeometry y="60" width="300" height="30" as="geometry"/>
                </mxCell>
                <mxCell id="9O6_YEoIzitBgrF7ZaUO-189" value="Status Code" style="shape=partialRectangle;connectable=0;fillColor=none;top=0;left=0;bottom=0;right=0;align=left;spacingLeft=6;overflow=hidden;" parent="9O6_YEoIzitBgrF7ZaUO-188" vertex="1">
                    <mxGeometry width="150" height="30" as="geometry"/>
                </mxCell>
                <mxCell id="9O6_YEoIzitBgrF7ZaUO-190" value="Number" style="shape=partialRectangle;connectable=0;fillColor=none;top=0;left=0;bottom=0;right=0;align=left;spacingLeft=6;overflow=hidden;" parent="9O6_YEoIzitBgrF7ZaUO-188" vertex="1">
                    <mxGeometry x="150" width="150" height="30" as="geometry"/>
                </mxCell>
                <mxCell id="9O6_YEoIzitBgrF7ZaUO-191" style="shape=partialRectangle;collapsible=0;dropTarget=0;pointerEvents=0;fillColor=none;top=0;left=0;bottom=0;right=0;points=[[0,0.5],[1,0.5]];portConstraint=eastwest;" parent="9O6_YEoIzitBgrF7ZaUO-184" vertex="1">
                    <mxGeometry y="90" width="300" height="30" as="geometry"/>
                </mxCell>
                <mxCell id="9O6_YEoIzitBgrF7ZaUO-192" value="Message" style="shape=partialRectangle;connectable=0;fillColor=none;top=0;left=0;bottom=0;right=0;align=left;spacingLeft=6;overflow=hidden;" parent="9O6_YEoIzitBgrF7ZaUO-191" vertex="1">
                    <mxGeometry width="150" height="30" as="geometry"/>
                </mxCell>
                <mxCell id="9O6_YEoIzitBgrF7ZaUO-193" value="String" style="shape=partialRectangle;connectable=0;fillColor=none;top=0;left=0;bottom=0;right=0;align=left;spacingLeft=6;overflow=hidden;" parent="9O6_YEoIzitBgrF7ZaUO-191" vertex="1">
                    <mxGeometry x="150" width="150" height="30" as="geometry"/>
                </mxCell>
                <mxCell id="9O6_YEoIzitBgrF7ZaUO-194" style="shape=partialRectangle;collapsible=0;dropTarget=0;pointerEvents=0;fillColor=none;top=0;left=0;bottom=0;right=0;points=[[0,0.5],[1,0.5]];portConstraint=eastwest;" parent="9O6_YEoIzitBgrF7ZaUO-184" vertex="1">
                    <mxGeometry y="120" width="300" height="30" as="geometry"/>
                </mxCell>
                <mxCell id="9O6_YEoIzitBgrF7ZaUO-195" value="Data" style="shape=partialRectangle;connectable=0;fillColor=none;top=0;left=0;bottom=0;right=0;align=left;spacingLeft=6;overflow=hidden;" parent="9O6_YEoIzitBgrF7ZaUO-194" vertex="1">
                    <mxGeometry width="150" height="30" as="geometry"/>
                </mxCell>
                <mxCell id="9O6_YEoIzitBgrF7ZaUO-196" value="Object" style="shape=partialRectangle;connectable=0;fillColor=none;top=0;left=0;bottom=0;right=0;align=left;spacingLeft=6;overflow=hidden;" parent="9O6_YEoIzitBgrF7ZaUO-194" vertex="1">
                    <mxGeometry x="150" width="150" height="30" as="geometry"/>
                </mxCell>
                <mxCell id="9O6_YEoIzitBgrF7ZaUO-206" style="edgeStyle=orthogonalEdgeStyle;rounded=0;orthogonalLoop=1;jettySize=auto;html=1;entryX=0;entryY=0.5;entryDx=0;entryDy=0;" parent="1" source="9O6_YEoIzitBgrF7ZaUO-198" target="9O6_YEoIzitBgrF7ZaUO-199" edge="1">
                    <mxGeometry relative="1" as="geometry"/>
                </mxCell>
                <mxCell id="9O6_YEoIzitBgrF7ZaUO-241" style="edgeStyle=orthogonalEdgeStyle;rounded=0;orthogonalLoop=1;jettySize=auto;html=1;entryX=0;entryY=0.5;entryDx=0;entryDy=0;" parent="1" source="9O6_YEoIzitBgrF7ZaUO-198" target="9O6_YEoIzitBgrF7ZaUO-231" edge="1">
                    <mxGeometry relative="1" as="geometry"/>
                </mxCell>
                <mxCell id="9O6_YEoIzitBgrF7ZaUO-257" style="edgeStyle=orthogonalEdgeStyle;rounded=0;orthogonalLoop=1;jettySize=auto;html=1;entryX=0;entryY=0.5;entryDx=0;entryDy=0;" parent="1" source="9O6_YEoIzitBgrF7ZaUO-198" target="9O6_YEoIzitBgrF7ZaUO-244" edge="1">
                    <mxGeometry relative="1" as="geometry"/>
                </mxCell>
                <mxCell id="9O6_YEoIzitBgrF7ZaUO-198" value="Change Password" style="rounded=0;whiteSpace=wrap;html=1;fillColor=#eeeeee;strokeColor=#36393d;" parent="1" vertex="1">
                    <mxGeometry x="1200" y="340" width="160" height="60" as="geometry"/>
                </mxCell>
                <mxCell id="9O6_YEoIzitBgrF7ZaUO-199" value="Headers" style="shape=table;startSize=30;container=1;collapsible=1;childLayout=tableLayout;fixedRows=1;rowLines=0;fontStyle=1;align=center;resizeLast=1;" parent="1" vertex="1" collapsed="1">
                    <mxGeometry x="1440" y="300" width="80" height="30" as="geometry">
                        <mxRectangle x="1440" y="300" width="300" height="100" as="alternateBounds"/>
                    </mxGeometry>
                </mxCell>
                <mxCell id="9O6_YEoIzitBgrF7ZaUO-200" value="" style="shape=partialRectangle;collapsible=0;dropTarget=0;pointerEvents=0;fillColor=none;top=0;left=0;bottom=1;right=0;points=[[0,0.5],[1,0.5]];portConstraint=eastwest;" parent="9O6_YEoIzitBgrF7ZaUO-199" vertex="1">
                    <mxGeometry y="30" width="300" height="30" as="geometry"/>
                </mxCell>
                <mxCell id="9O6_YEoIzitBgrF7ZaUO-201" value="Key" style="shape=partialRectangle;connectable=0;fillColor=none;top=0;left=0;bottom=0;right=0;align=left;spacingLeft=6;fontStyle=5;overflow=hidden;" parent="9O6_YEoIzitBgrF7ZaUO-200" vertex="1">
                    <mxGeometry width="150" height="30" as="geometry"/>
                </mxCell>
                <mxCell id="9O6_YEoIzitBgrF7ZaUO-202" value="Value Type" style="shape=partialRectangle;connectable=0;fillColor=none;top=0;left=0;bottom=0;right=0;align=left;spacingLeft=6;fontStyle=5;overflow=hidden;" parent="9O6_YEoIzitBgrF7ZaUO-200" vertex="1">
                    <mxGeometry x="150" width="150" height="30" as="geometry"/>
                </mxCell>
                <mxCell id="9O6_YEoIzitBgrF7ZaUO-203" value="" style="shape=partialRectangle;collapsible=0;dropTarget=0;pointerEvents=0;fillColor=none;top=0;left=0;bottom=0;right=0;points=[[0,0.5],[1,0.5]];portConstraint=eastwest;" parent="9O6_YEoIzitBgrF7ZaUO-199" vertex="1">
                    <mxGeometry y="60" width="300" height="30" as="geometry"/>
                </mxCell>
                <mxCell id="9O6_YEoIzitBgrF7ZaUO-204" value="Authorization" style="shape=partialRectangle;connectable=0;fillColor=none;top=0;left=0;bottom=0;right=0;align=left;spacingLeft=6;overflow=hidden;" parent="9O6_YEoIzitBgrF7ZaUO-203" vertex="1">
                    <mxGeometry width="150" height="30" as="geometry"/>
                </mxCell>
                <mxCell id="9O6_YEoIzitBgrF7ZaUO-205" value="Bearer Token" style="shape=partialRectangle;connectable=0;fillColor=none;top=0;left=0;bottom=0;right=0;align=left;spacingLeft=6;overflow=hidden;" parent="9O6_YEoIzitBgrF7ZaUO-203" vertex="1">
                    <mxGeometry x="150" width="150" height="30" as="geometry"/>
                </mxCell>
                <mxCell id="9O6_YEoIzitBgrF7ZaUO-231" value="Body" style="shape=table;startSize=30;container=1;collapsible=1;childLayout=tableLayout;fixedRows=1;rowLines=0;fontStyle=1;align=center;resizeLast=1;" parent="1" vertex="1" collapsed="1">
                    <mxGeometry x="1440" y="410" width="80" height="30" as="geometry">
                        <mxRectangle x="1440" y="410" width="300" height="130" as="alternateBounds"/>
                    </mxGeometry>
                </mxCell>
                <mxCell id="9O6_YEoIzitBgrF7ZaUO-232" value="" style="shape=partialRectangle;collapsible=0;dropTarget=0;pointerEvents=0;fillColor=none;top=0;left=0;bottom=1;right=0;points=[[0,0.5],[1,0.5]];portConstraint=eastwest;" parent="9O6_YEoIzitBgrF7ZaUO-231" vertex="1">
                    <mxGeometry y="30" width="300" height="30" as="geometry"/>
                </mxCell>
                <mxCell id="9O6_YEoIzitBgrF7ZaUO-233" value="Key" style="shape=partialRectangle;connectable=0;fillColor=none;top=0;left=0;bottom=0;right=0;align=left;spacingLeft=6;fontStyle=5;overflow=hidden;" parent="9O6_YEoIzitBgrF7ZaUO-232" vertex="1">
                    <mxGeometry width="150" height="30" as="geometry"/>
                </mxCell>
                <mxCell id="9O6_YEoIzitBgrF7ZaUO-234" value="Value Type" style="shape=partialRectangle;connectable=0;fillColor=none;top=0;left=0;bottom=0;right=0;align=left;spacingLeft=6;fontStyle=5;overflow=hidden;" parent="9O6_YEoIzitBgrF7ZaUO-232" vertex="1">
                    <mxGeometry x="150" width="150" height="30" as="geometry"/>
                </mxCell>
                <mxCell id="9O6_YEoIzitBgrF7ZaUO-235" style="shape=partialRectangle;collapsible=0;dropTarget=0;pointerEvents=0;fillColor=none;top=0;left=0;bottom=0;right=0;points=[[0,0.5],[1,0.5]];portConstraint=eastwest;" parent="9O6_YEoIzitBgrF7ZaUO-231" vertex="1">
                    <mxGeometry y="60" width="300" height="30" as="geometry"/>
                </mxCell>
                <mxCell id="9O6_YEoIzitBgrF7ZaUO-236" value="Old Password" style="shape=partialRectangle;connectable=0;fillColor=none;top=0;left=0;bottom=0;right=0;align=left;spacingLeft=6;overflow=hidden;" parent="9O6_YEoIzitBgrF7ZaUO-235" vertex="1">
                    <mxGeometry width="150" height="30" as="geometry"/>
                </mxCell>
                <mxCell id="9O6_YEoIzitBgrF7ZaUO-237" value="String (Encrypted)" style="shape=partialRectangle;connectable=0;fillColor=none;top=0;left=0;bottom=0;right=0;align=left;spacingLeft=6;overflow=hidden;" parent="9O6_YEoIzitBgrF7ZaUO-235" vertex="1">
                    <mxGeometry x="150" width="150" height="30" as="geometry"/>
                </mxCell>
                <mxCell id="9O6_YEoIzitBgrF7ZaUO-238" style="shape=partialRectangle;collapsible=0;dropTarget=0;pointerEvents=0;fillColor=none;top=0;left=0;bottom=0;right=0;points=[[0,0.5],[1,0.5]];portConstraint=eastwest;" parent="9O6_YEoIzitBgrF7ZaUO-231" vertex="1">
                    <mxGeometry y="90" width="300" height="30" as="geometry"/>
                </mxCell>
                <mxCell id="9O6_YEoIzitBgrF7ZaUO-239" value="New Password" style="shape=partialRectangle;connectable=0;fillColor=none;top=0;left=0;bottom=0;right=0;align=left;spacingLeft=6;overflow=hidden;" parent="9O6_YEoIzitBgrF7ZaUO-238" vertex="1">
                    <mxGeometry width="150" height="30" as="geometry"/>
                </mxCell>
                <mxCell id="9O6_YEoIzitBgrF7ZaUO-240" value="String (Encrypted)" style="shape=partialRectangle;connectable=0;fillColor=none;top=0;left=0;bottom=0;right=0;align=left;spacingLeft=6;overflow=hidden;" parent="9O6_YEoIzitBgrF7ZaUO-238" vertex="1">
                    <mxGeometry x="150" width="150" height="30" as="geometry"/>
                </mxCell>
                <mxCell id="9O6_YEoIzitBgrF7ZaUO-244" value="Response" style="shape=table;startSize=30;container=1;collapsible=1;childLayout=tableLayout;fixedRows=1;rowLines=0;fontStyle=1;align=center;resizeLast=1;" parent="1" vertex="1" collapsed="1">
                    <mxGeometry x="1440" y="520" width="80" height="30" as="geometry">
                        <mxRectangle x="1440" y="520" width="300" height="160" as="alternateBounds"/>
                    </mxGeometry>
                </mxCell>
                <mxCell id="9O6_YEoIzitBgrF7ZaUO-245" value="" style="shape=partialRectangle;collapsible=0;dropTarget=0;pointerEvents=0;fillColor=none;top=0;left=0;bottom=1;right=0;points=[[0,0.5],[1,0.5]];portConstraint=eastwest;" parent="9O6_YEoIzitBgrF7ZaUO-244" vertex="1">
                    <mxGeometry y="30" width="300" height="30" as="geometry"/>
                </mxCell>
                <mxCell id="9O6_YEoIzitBgrF7ZaUO-246" value="Key" style="shape=partialRectangle;connectable=0;fillColor=none;top=0;left=0;bottom=0;right=0;align=left;spacingLeft=6;fontStyle=5;overflow=hidden;" parent="9O6_YEoIzitBgrF7ZaUO-245" vertex="1">
                    <mxGeometry width="150" height="30" as="geometry"/>
                </mxCell>
                <mxCell id="9O6_YEoIzitBgrF7ZaUO-247" value="Value Type" style="shape=partialRectangle;connectable=0;fillColor=none;top=0;left=0;bottom=0;right=0;align=left;spacingLeft=6;fontStyle=5;overflow=hidden;" parent="9O6_YEoIzitBgrF7ZaUO-245" vertex="1">
                    <mxGeometry x="150" width="150" height="30" as="geometry"/>
                </mxCell>
                <mxCell id="9O6_YEoIzitBgrF7ZaUO-248" value="" style="shape=partialRectangle;collapsible=0;dropTarget=0;pointerEvents=0;fillColor=none;top=0;left=0;bottom=0;right=0;points=[[0,0.5],[1,0.5]];portConstraint=eastwest;" parent="9O6_YEoIzitBgrF7ZaUO-244" vertex="1">
                    <mxGeometry y="60" width="300" height="30" as="geometry"/>
                </mxCell>
                <mxCell id="9O6_YEoIzitBgrF7ZaUO-249" value="Status Code" style="shape=partialRectangle;connectable=0;fillColor=none;top=0;left=0;bottom=0;right=0;align=left;spacingLeft=6;overflow=hidden;" parent="9O6_YEoIzitBgrF7ZaUO-248" vertex="1">
                    <mxGeometry width="150" height="30" as="geometry"/>
                </mxCell>
                <mxCell id="9O6_YEoIzitBgrF7ZaUO-250" value="Number" style="shape=partialRectangle;connectable=0;fillColor=none;top=0;left=0;bottom=0;right=0;align=left;spacingLeft=6;overflow=hidden;" parent="9O6_YEoIzitBgrF7ZaUO-248" vertex="1">
                    <mxGeometry x="150" width="150" height="30" as="geometry"/>
                </mxCell>
                <mxCell id="9O6_YEoIzitBgrF7ZaUO-251" style="shape=partialRectangle;collapsible=0;dropTarget=0;pointerEvents=0;fillColor=none;top=0;left=0;bottom=0;right=0;points=[[0,0.5],[1,0.5]];portConstraint=eastwest;" parent="9O6_YEoIzitBgrF7ZaUO-244" vertex="1">
                    <mxGeometry y="90" width="300" height="30" as="geometry"/>
                </mxCell>
                <mxCell id="9O6_YEoIzitBgrF7ZaUO-252" value="Message" style="shape=partialRectangle;connectable=0;fillColor=none;top=0;left=0;bottom=0;right=0;align=left;spacingLeft=6;overflow=hidden;" parent="9O6_YEoIzitBgrF7ZaUO-251" vertex="1">
                    <mxGeometry width="150" height="30" as="geometry"/>
                </mxCell>
                <mxCell id="9O6_YEoIzitBgrF7ZaUO-253" value="String" style="shape=partialRectangle;connectable=0;fillColor=none;top=0;left=0;bottom=0;right=0;align=left;spacingLeft=6;overflow=hidden;" parent="9O6_YEoIzitBgrF7ZaUO-251" vertex="1">
                    <mxGeometry x="150" width="150" height="30" as="geometry"/>
                </mxCell>
                <mxCell id="9O6_YEoIzitBgrF7ZaUO-254" style="shape=partialRectangle;collapsible=0;dropTarget=0;pointerEvents=0;fillColor=none;top=0;left=0;bottom=0;right=0;points=[[0,0.5],[1,0.5]];portConstraint=eastwest;" parent="9O6_YEoIzitBgrF7ZaUO-244" vertex="1">
                    <mxGeometry y="120" width="300" height="30" as="geometry"/>
                </mxCell>
                <mxCell id="9O6_YEoIzitBgrF7ZaUO-255" value="Data" style="shape=partialRectangle;connectable=0;fillColor=none;top=0;left=0;bottom=0;right=0;align=left;spacingLeft=6;overflow=hidden;" parent="9O6_YEoIzitBgrF7ZaUO-254" vertex="1">
                    <mxGeometry width="150" height="30" as="geometry"/>
                </mxCell>
                <mxCell id="9O6_YEoIzitBgrF7ZaUO-256" value="Object" style="shape=partialRectangle;connectable=0;fillColor=none;top=0;left=0;bottom=0;right=0;align=left;spacingLeft=6;overflow=hidden;" parent="9O6_YEoIzitBgrF7ZaUO-254" vertex="1">
                    <mxGeometry x="150" width="150" height="30" as="geometry"/>
                </mxCell>
                <mxCell id="9O6_YEoIzitBgrF7ZaUO-297" style="edgeStyle=orthogonalEdgeStyle;rounded=0;orthogonalLoop=1;jettySize=auto;html=1;entryX=0;entryY=0.5;entryDx=0;entryDy=0;" parent="1" source="9O6_YEoIzitBgrF7ZaUO-300" target="9O6_YEoIzitBgrF7ZaUO-301" edge="1">
                    <mxGeometry relative="1" as="geometry"/>
                </mxCell>
                <mxCell id="9O6_YEoIzitBgrF7ZaUO-298" style="edgeStyle=orthogonalEdgeStyle;rounded=0;orthogonalLoop=1;jettySize=auto;html=1;entryX=0;entryY=0.5;entryDx=0;entryDy=0;" parent="1" source="9O6_YEoIzitBgrF7ZaUO-300" target="9O6_YEoIzitBgrF7ZaUO-308" edge="1">
                    <mxGeometry relative="1" as="geometry"/>
                </mxCell>
                <mxCell id="9O6_YEoIzitBgrF7ZaUO-299" style="edgeStyle=orthogonalEdgeStyle;rounded=0;orthogonalLoop=1;jettySize=auto;html=1;entryX=0;entryY=0.5;entryDx=0;entryDy=0;" parent="1" source="9O6_YEoIzitBgrF7ZaUO-300" target="9O6_YEoIzitBgrF7ZaUO-318" edge="1">
                    <mxGeometry relative="1" as="geometry"/>
                </mxCell>
                <mxCell id="9O6_YEoIzitBgrF7ZaUO-300" value="Delete User" style="rounded=0;whiteSpace=wrap;html=1;fillColor=#ffcc99;strokeColor=#36393d;" parent="1" vertex="1">
                    <mxGeometry x="-520" y="338" width="160" height="60" as="geometry"/>
                </mxCell>
                <mxCell id="9O6_YEoIzitBgrF7ZaUO-301" value="Headers" style="shape=table;startSize=30;container=1;collapsible=1;childLayout=tableLayout;fixedRows=1;rowLines=0;fontStyle=1;align=center;resizeLast=1;" parent="1" vertex="1" collapsed="1">
                    <mxGeometry x="-280" y="293" width="80" height="30" as="geometry">
                        <mxRectangle x="-280" y="293" width="300" height="100" as="alternateBounds"/>
                    </mxGeometry>
                </mxCell>
                <mxCell id="9O6_YEoIzitBgrF7ZaUO-302" value="" style="shape=partialRectangle;collapsible=0;dropTarget=0;pointerEvents=0;fillColor=none;top=0;left=0;bottom=1;right=0;points=[[0,0.5],[1,0.5]];portConstraint=eastwest;" parent="9O6_YEoIzitBgrF7ZaUO-301" vertex="1">
                    <mxGeometry y="30" width="300" height="30" as="geometry"/>
                </mxCell>
                <mxCell id="9O6_YEoIzitBgrF7ZaUO-303" value="Key" style="shape=partialRectangle;connectable=0;fillColor=none;top=0;left=0;bottom=0;right=0;align=left;spacingLeft=6;fontStyle=5;overflow=hidden;" parent="9O6_YEoIzitBgrF7ZaUO-302" vertex="1">
                    <mxGeometry width="150" height="30" as="geometry"/>
                </mxCell>
                <mxCell id="9O6_YEoIzitBgrF7ZaUO-304" value="Value Type" style="shape=partialRectangle;connectable=0;fillColor=none;top=0;left=0;bottom=0;right=0;align=left;spacingLeft=6;fontStyle=5;overflow=hidden;" parent="9O6_YEoIzitBgrF7ZaUO-302" vertex="1">
                    <mxGeometry x="150" width="150" height="30" as="geometry"/>
                </mxCell>
                <mxCell id="9O6_YEoIzitBgrF7ZaUO-305" value="" style="shape=partialRectangle;collapsible=0;dropTarget=0;pointerEvents=0;fillColor=none;top=0;left=0;bottom=0;right=0;points=[[0,0.5],[1,0.5]];portConstraint=eastwest;" parent="9O6_YEoIzitBgrF7ZaUO-301" vertex="1">
                    <mxGeometry y="60" width="300" height="30" as="geometry"/>
                </mxCell>
                <mxCell id="9O6_YEoIzitBgrF7ZaUO-306" value="Authorization" style="shape=partialRectangle;connectable=0;fillColor=none;top=0;left=0;bottom=0;right=0;align=left;spacingLeft=6;overflow=hidden;" parent="9O6_YEoIzitBgrF7ZaUO-305" vertex="1">
                    <mxGeometry width="150" height="30" as="geometry"/>
                </mxCell>
                <mxCell id="9O6_YEoIzitBgrF7ZaUO-307" value="Bearer Token" style="shape=partialRectangle;connectable=0;fillColor=none;top=0;left=0;bottom=0;right=0;align=left;spacingLeft=6;overflow=hidden;" parent="9O6_YEoIzitBgrF7ZaUO-305" vertex="1">
                    <mxGeometry x="150" width="150" height="30" as="geometry"/>
                </mxCell>
                <mxCell id="9O6_YEoIzitBgrF7ZaUO-308" value="Body" style="shape=table;startSize=30;container=1;collapsible=1;childLayout=tableLayout;fixedRows=1;rowLines=0;fontStyle=1;align=center;resizeLast=1;" parent="1" vertex="1" collapsed="1">
                    <mxGeometry x="-280" y="409" width="80" height="30" as="geometry">
                        <mxRectangle x="-280" y="408" width="300" height="100" as="alternateBounds"/>
                    </mxGeometry>
                </mxCell>
                <mxCell id="9O6_YEoIzitBgrF7ZaUO-309" value="" style="shape=partialRectangle;collapsible=0;dropTarget=0;pointerEvents=0;fillColor=none;top=0;left=0;bottom=1;right=0;points=[[0,0.5],[1,0.5]];portConstraint=eastwest;" parent="9O6_YEoIzitBgrF7ZaUO-308" vertex="1">
                    <mxGeometry y="30" width="300" height="30" as="geometry"/>
                </mxCell>
                <mxCell id="9O6_YEoIzitBgrF7ZaUO-310" value="Key" style="shape=partialRectangle;connectable=0;fillColor=none;top=0;left=0;bottom=0;right=0;align=left;spacingLeft=6;fontStyle=5;overflow=hidden;" parent="9O6_YEoIzitBgrF7ZaUO-309" vertex="1">
                    <mxGeometry width="150" height="30" as="geometry"/>
                </mxCell>
                <mxCell id="9O6_YEoIzitBgrF7ZaUO-311" value="Value Type" style="shape=partialRectangle;connectable=0;fillColor=none;top=0;left=0;bottom=0;right=0;align=left;spacingLeft=6;fontStyle=5;overflow=hidden;" parent="9O6_YEoIzitBgrF7ZaUO-309" vertex="1">
                    <mxGeometry x="150" width="150" height="30" as="geometry"/>
                </mxCell>
                <mxCell id="9O6_YEoIzitBgrF7ZaUO-312" style="shape=partialRectangle;collapsible=0;dropTarget=0;pointerEvents=0;fillColor=none;top=0;left=0;bottom=0;right=0;points=[[0,0.5],[1,0.5]];portConstraint=eastwest;" parent="9O6_YEoIzitBgrF7ZaUO-308" vertex="1">
                    <mxGeometry y="60" width="300" height="30" as="geometry"/>
                </mxCell>
                <mxCell id="9O6_YEoIzitBgrF7ZaUO-313" value="Username" style="shape=partialRectangle;connectable=0;fillColor=none;top=0;left=0;bottom=0;right=0;align=left;spacingLeft=6;overflow=hidden;" parent="9O6_YEoIzitBgrF7ZaUO-312" vertex="1">
                    <mxGeometry width="150" height="30" as="geometry"/>
                </mxCell>
                <mxCell id="9O6_YEoIzitBgrF7ZaUO-314" value="String" style="shape=partialRectangle;connectable=0;fillColor=none;top=0;left=0;bottom=0;right=0;align=left;spacingLeft=6;overflow=hidden;" parent="9O6_YEoIzitBgrF7ZaUO-312" vertex="1">
                    <mxGeometry x="150" width="150" height="30" as="geometry"/>
                </mxCell>
                <mxCell id="9O6_YEoIzitBgrF7ZaUO-318" value="Response" style="shape=table;startSize=30;container=1;collapsible=1;childLayout=tableLayout;fixedRows=1;rowLines=0;fontStyle=1;align=center;resizeLast=1;" parent="1" vertex="1" collapsed="1">
                    <mxGeometry x="-280" y="520" width="80" height="30" as="geometry">
                        <mxRectangle x="-280" y="528" width="300" height="160" as="alternateBounds"/>
                    </mxGeometry>
                </mxCell>
                <mxCell id="9O6_YEoIzitBgrF7ZaUO-319" value="" style="shape=partialRectangle;collapsible=0;dropTarget=0;pointerEvents=0;fillColor=none;top=0;left=0;bottom=1;right=0;points=[[0,0.5],[1,0.5]];portConstraint=eastwest;" parent="9O6_YEoIzitBgrF7ZaUO-318" vertex="1">
                    <mxGeometry y="30" width="300" height="30" as="geometry"/>
                </mxCell>
                <mxCell id="9O6_YEoIzitBgrF7ZaUO-320" value="Key" style="shape=partialRectangle;connectable=0;fillColor=none;top=0;left=0;bottom=0;right=0;align=left;spacingLeft=6;fontStyle=5;overflow=hidden;" parent="9O6_YEoIzitBgrF7ZaUO-319" vertex="1">
                    <mxGeometry width="150" height="30" as="geometry"/>
                </mxCell>
                <mxCell id="9O6_YEoIzitBgrF7ZaUO-321" value="Value Type" style="shape=partialRectangle;connectable=0;fillColor=none;top=0;left=0;bottom=0;right=0;align=left;spacingLeft=6;fontStyle=5;overflow=hidden;" parent="9O6_YEoIzitBgrF7ZaUO-319" vertex="1">
                    <mxGeometry x="150" width="150" height="30" as="geometry"/>
                </mxCell>
                <mxCell id="9O6_YEoIzitBgrF7ZaUO-322" value="" style="shape=partialRectangle;collapsible=0;dropTarget=0;pointerEvents=0;fillColor=none;top=0;left=0;bottom=0;right=0;points=[[0,0.5],[1,0.5]];portConstraint=eastwest;" parent="9O6_YEoIzitBgrF7ZaUO-318" vertex="1">
                    <mxGeometry y="60" width="300" height="30" as="geometry"/>
                </mxCell>
                <mxCell id="9O6_YEoIzitBgrF7ZaUO-323" value="Status Code" style="shape=partialRectangle;connectable=0;fillColor=none;top=0;left=0;bottom=0;right=0;align=left;spacingLeft=6;overflow=hidden;" parent="9O6_YEoIzitBgrF7ZaUO-322" vertex="1">
                    <mxGeometry width="150" height="30" as="geometry"/>
                </mxCell>
                <mxCell id="9O6_YEoIzitBgrF7ZaUO-324" value="Number" style="shape=partialRectangle;connectable=0;fillColor=none;top=0;left=0;bottom=0;right=0;align=left;spacingLeft=6;overflow=hidden;" parent="9O6_YEoIzitBgrF7ZaUO-322" vertex="1">
                    <mxGeometry x="150" width="150" height="30" as="geometry"/>
                </mxCell>
                <mxCell id="9O6_YEoIzitBgrF7ZaUO-325" style="shape=partialRectangle;collapsible=0;dropTarget=0;pointerEvents=0;fillColor=none;top=0;left=0;bottom=0;right=0;points=[[0,0.5],[1,0.5]];portConstraint=eastwest;" parent="9O6_YEoIzitBgrF7ZaUO-318" vertex="1">
                    <mxGeometry y="90" width="300" height="30" as="geometry"/>
                </mxCell>
                <mxCell id="9O6_YEoIzitBgrF7ZaUO-326" value="Message" style="shape=partialRectangle;connectable=0;fillColor=none;top=0;left=0;bottom=0;right=0;align=left;spacingLeft=6;overflow=hidden;" parent="9O6_YEoIzitBgrF7ZaUO-325" vertex="1">
                    <mxGeometry width="150" height="30" as="geometry"/>
                </mxCell>
                <mxCell id="9O6_YEoIzitBgrF7ZaUO-327" value="String" style="shape=partialRectangle;connectable=0;fillColor=none;top=0;left=0;bottom=0;right=0;align=left;spacingLeft=6;overflow=hidden;" parent="9O6_YEoIzitBgrF7ZaUO-325" vertex="1">
                    <mxGeometry x="150" width="150" height="30" as="geometry"/>
                </mxCell>
                <mxCell id="9O6_YEoIzitBgrF7ZaUO-328" style="shape=partialRectangle;collapsible=0;dropTarget=0;pointerEvents=0;fillColor=none;top=0;left=0;bottom=0;right=0;points=[[0,0.5],[1,0.5]];portConstraint=eastwest;" parent="9O6_YEoIzitBgrF7ZaUO-318" vertex="1">
                    <mxGeometry y="120" width="300" height="30" as="geometry"/>
                </mxCell>
                <mxCell id="9O6_YEoIzitBgrF7ZaUO-329" value="Data" style="shape=partialRectangle;connectable=0;fillColor=none;top=0;left=0;bottom=0;right=0;align=left;spacingLeft=6;overflow=hidden;" parent="9O6_YEoIzitBgrF7ZaUO-328" vertex="1">
                    <mxGeometry width="150" height="30" as="geometry"/>
                </mxCell>
                <mxCell id="9O6_YEoIzitBgrF7ZaUO-330" value="Object" style="shape=partialRectangle;connectable=0;fillColor=none;top=0;left=0;bottom=0;right=0;align=left;spacingLeft=6;overflow=hidden;" parent="9O6_YEoIzitBgrF7ZaUO-328" vertex="1">
                    <mxGeometry x="150" width="150" height="30" as="geometry"/>
                </mxCell>
                <mxCell id="9O6_YEoIzitBgrF7ZaUO-345" value="" style="group" parent="1" vertex="1" connectable="0">
                    <mxGeometry x="1170" y="-10" width="230" height="170" as="geometry"/>
                </mxCell>
                <mxCell id="9O6_YEoIzitBgrF7ZaUO-336" value="" style="rounded=0;whiteSpace=wrap;html=1;fillColor=#cce5ff;strokeColor=#36393d;" parent="9O6_YEoIzitBgrF7ZaUO-345" vertex="1">
                    <mxGeometry x="30" y="50" width="50" height="20" as="geometry"/>
                </mxCell>
                <mxCell id="9O6_YEoIzitBgrF7ZaUO-337" value="POST Request" style="text;html=1;align=left;verticalAlign=middle;resizable=0;points=[];autosize=1;strokeColor=none;" parent="9O6_YEoIzitBgrF7ZaUO-345" vertex="1">
                    <mxGeometry x="110" y="50" width="100" height="20" as="geometry"/>
                </mxCell>
                <mxCell id="9O6_YEoIzitBgrF7ZaUO-338" value="" style="rounded=0;whiteSpace=wrap;html=1;fillColor=#eeeeee;strokeColor=#36393d;" parent="9O6_YEoIzitBgrF7ZaUO-345" vertex="1">
                    <mxGeometry x="30" y="90" width="50" height="20" as="geometry"/>
                </mxCell>
                <mxCell id="9O6_YEoIzitBgrF7ZaUO-339" value="PUT Request" style="text;html=1;align=left;verticalAlign=middle;resizable=0;points=[];autosize=1;strokeColor=none;" parent="9O6_YEoIzitBgrF7ZaUO-345" vertex="1">
                    <mxGeometry x="110" y="90" width="90" height="20" as="geometry"/>
                </mxCell>
                <mxCell id="9O6_YEoIzitBgrF7ZaUO-340" value="" style="rounded=0;whiteSpace=wrap;html=1;fillColor=#ffcc99;strokeColor=#36393d;" parent="9O6_YEoIzitBgrF7ZaUO-345" vertex="1">
                    <mxGeometry x="30" y="130" width="50" height="20" as="geometry"/>
                </mxCell>
                <mxCell id="9O6_YEoIzitBgrF7ZaUO-341" value="DELETE Request" style="text;html=1;align=left;verticalAlign=middle;resizable=0;points=[];autosize=1;strokeColor=none;" parent="9O6_YEoIzitBgrF7ZaUO-345" vertex="1">
                    <mxGeometry x="110" y="130" width="110" height="20" as="geometry"/>
                </mxCell>
                <mxCell id="9O6_YEoIzitBgrF7ZaUO-342" value="&lt;b&gt;LEGEND&lt;/b&gt;" style="text;html=1;align=center;verticalAlign=middle;resizable=0;points=[];autosize=1;strokeColor=none;" parent="9O6_YEoIzitBgrF7ZaUO-345" vertex="1">
                    <mxGeometry x="80" y="10" width="70" height="20" as="geometry"/>
                </mxCell>
                <mxCell id="9O6_YEoIzitBgrF7ZaUO-344" value="" style="rounded=0;whiteSpace=wrap;html=1;fillColor=none;" parent="9O6_YEoIzitBgrF7ZaUO-345" vertex="1">
                    <mxGeometry width="230" height="170" as="geometry"/>
                </mxCell>
            </root>
        </mxGraphModel>
    </diagram>
</mxfile>